[Header]
FileType HTR
DataType HTRS
FileVersion 1
NumSegments 64
NumFrames 4
DataFrameRate 30
EulerRotationOrder ZYX
CalibrationUnits mm
RotationUnits Degrees
GlobalAxisofGravity Y
BoneLengthAxis Y
ScaleFactor 1.0
[SegmentNames&Hierarchy]
Hips	GLOBAL
Spine	Hips
Spine1	Spine
Spine2	Spine1
Neck	Spine2
Head	Neck
LeftEye	Head
RightEye	Head
LeftShoulder	Spine2
LeftArm	LeftShoulder
LeftForeArm	LeftArm
LeftHand	LeftForeArm
LeftHandThumb1	LeftHand
LeftHandThumb2	LeftHandThumb1
LeftHandThumb3	LeftHandThumb2
LeftHandThumb4	LeftHandThumb3
LeftHandIndex1	LeftHand
LeftHandIndex2	LeftHandIndex1
LeftHandIndex3	LeftHandIndex2
LeftHandIndex4	LeftHandIndex3
LeftHandMiddle1	LeftHand
LeftHandMiddle2	LeftHandMiddle1
LeftHandMiddle3	LeftHandMiddle2
LeftHandMiddle4	LeftHandMiddle3
LeftHandRing1	LeftHand
LeftHandRing2	LeftHandRing1
LeftHandRing3	LeftHandRing2
LeftHandRing4	LeftHandRing3
LeftHandPinky1	LeftHand
LeftHandPinky2	LeftHandPinky1
LeftHandPinky3	LeftHandPinky2
LeftHandPinky4	LeftHandPinky3
RightShoulder	Spine2
RightArm	RightShoulder
RightForeArm	RightArm
RightHand	RightForeArm
RightHandPinky1	RightHand
RightHandPinky2	RightHandPinky1
RightHandPinky3	RightHandPinky2
RightHandPinky4	RightHandPinky3
RightHandRing1	RightHand
RightHandRing2	RightHandRing1
RightHandRing3	RightHandRing2
RightHandRing4	RightHandRing3
RightHandMiddle1	RightHand
RightHandMiddle2	RightHandMiddle1
RightHandMiddle3	RightHandMiddle2
RightHandMiddle4	RightHandMiddle3
RightHandIndex1	RightHand
RightHandIndex2	RightHandIndex1
RightHandIndex3	RightHandIndex2
RightHandIndex4	RightHandIndex3
RightHandThumb1	RightHand
RightHandThumb2	RightHandThumb1
RightHandThumb3	RightHandThumb2
RightHandThumb4	RightHandThumb3
LeftUpLeg	Hips
LeftLeg	LeftUpLeg
LeftFoot	LeftLeg
LeftToeBase	LeftFoot
RightUpLeg	Hips
RightLeg	RightUpLeg
RightFoot	RightLeg
RightToeBase	RightFoot
[BasePosition]
Hips	0	0	0	0	0	0	1
Spine	0	0	0	0	0	0	1
Spine1	0	0	0	0	0	0	1
Spine2	0	0	0	0	0	0	1
Neck	0	0	0	0	0	0	1
Head	0	0	0	0	0	0	1
LeftEye	0	0	0	0	0	0	1
RightEye	0	0	0	0	0	0	1
LeftShoulder	0	0	0	0	0	0	1
LeftArm	0	0	0	0	0	0	1
LeftForeArm	0	0	0	0	0	0	1
LeftHand	0	0	0	0	0	0	1
LeftHandThumb1	0	0	0	0	0	0	1
LeftHandThumb2	0	0	0	0	0	0	1
LeftHandThumb3	0	0	0	0	0	0	1
LeftHandThumb4	0	0	0	0	0	0	1
LeftHandIndex1	0	0	0	0	0	0	1
LeftHandIndex2	0	0	0	0	0	0	1
LeftHandIndex3	0	0	0	0	0	0	1
LeftHandIndex4	0	0	0	0	0	0	1
LeftHandMiddle1	0	0	0	0	0	0	1
LeftHandMiddle2	0	0	0	0	0	0	1
LeftHandMiddle3	0	0	0	0	0	0	1
LeftHandMiddle4	0	0	0	0	0	0	1
LeftHandRing1	0	0	0	0	0	0	1
LeftHandRing2	0	0	0	0	0	0	1
LeftHandRing3	0	0	0	0	0	0	1
LeftHandRing4	0	0	0	0	0	0	1
LeftHandPinky1	0	0	0	0	0	0	1
LeftHandPinky2	0	0	0	0	0	0	1
LeftHandPinky3	0	0	0	0	0	0	1
LeftHandPinky4	0	0	0	0	0	0	1
RightShoulder	0	0	0	0	0	0	1
RightArm	0	0	0	0	0	0	1
RightForeArm	0	0	0	0	0	0	1
RightHand	0	0	0	0	0	0	1
RightHandPinky1	0	0	0	0	0	0	1
RightHandPinky2	0	0	0	0	0	0	1
RightHandPinky3	0	0	0	0	0	0	1
RightHandPinky4	0	0	0	0	0	0	1
RightHandRing1	0	0	0	0	0	0	1
RightHandRing2	0	0	0	0	0	0	1
RightHandRing3	0	0	0	0	0	0	1
RightHandRing4	0	0	0	0	0	0	1
RightHandMiddle1	0	0	0	0	0	0	1
RightHandMiddle2	0	0	0	0	0	0	1
RightHandMiddle3	0	0	0	0	0	0	1
RightHandMiddle4	0	0	0	0	0	0	1
RightHandIndex1	0	0	0	0	0	0	1
RightHandIndex2	0	0	0	0	0	0	1
RightHandIndex3	0	0	0	0	0	0	1
RightHandIndex4	0	0	0	0	0	0	1
RightHandThumb1	0	0	0	0	0	0	1
RightHandThumb2	0	0	0	0	0	0	1
RightHandThumb3	0	0	0	0	0	0	1
RightHandThumb4	0	0	0	0	0	0	1
LeftUpLeg	0	0	0	0	0	0	1
LeftLeg	0	0	0	0	0	0	1
LeftFoot	0	0	0	0	0	0	1
LeftToeBase	0	0	0	0	0	0	1
RightUpLeg	0	0	0	0	0	0	1
RightLeg	0	0	0	0	0	0	1
RightFoot	0	0	0	0	0	0	1
RightToeBase	0	0	0	0	0	0	1
[Hips]
21	100.5628967	844.2243042	-33.65942383	17.40844154	-28.9688797	0.7008763552	1.0
22	94.20861053	900.5300903	-20.8005867	10.97314358	-28.39031029	4.379080772	1.0
23	83.26976013	969.2758789	-11.4947834	6.20480442	-24.27443504	5.83292532	1.0
24	68.44470215	1041.577026	-4.893582344	3.518746614	-16.80353546	5.509306431	1.0
[Spine]
21	0	101.8159943	1.315000057	7.983298779	-0.6937922835	2.051553726	1.0
22	0	101.8159943	1.315000057	7.072956085	1.67110467	0.9421260357	1.0
23	0	101.8159943	1.315000057	6.334123611	3.342603922	-0.1580693424	1.0
24	0	101.8159943	1.315000057	5.913910866	3.429408073	-1.620895505	1.0
[Spine1]
21	0	100.8349991	-10.00800037	3.134360313	-0.5492486358	1.836147189	1.0
22	0	100.8349991	-10.00800037	2.851953506	0.2676041722	1.673642874	1.0
23	0	100.8349991	-10.00800037	2.502841234	0.8490626812	1.359271884	1.0
24	0	100.8349991	-10.00800037	2.152377605	0.8488593102	0.8540453315	1.0
[Spine2]
21	0	91	-13.73399925	3.107193947	-0.5295808911	1.857798219	1.0
22	0	91	-13.73399925	2.819490194	0.3069248497	1.701786518	1.0
23	0	91	-13.73399925	2.464856386	0.9009678364	1.382762551	1.0
24	0	91	-13.73399925	2.115943909	0.8981274366	0.8729805946	1.0
[Neck]
21	0	166.7169952	-25.16200066	-2.749524593	3.003102303	0.8793814182	1.0
22	0	166.7169952	-25.16200066	1.591680646	1.633756757	-0.8328327537	1.0
23	0	166.7169952	-25.16200066	6.025144577	0.3174705505	-1.73137486	1.0
24	0	166.7169952	-25.16200066	10.19861317	-0.424128741	-1.99069643	1.0
[Head]
21	0	96.17900085	16.84999847	-33.26079559	13.09607506	-13.73063087	1.0
22	0	96.17900085	16.84999847	-26.37528229	8.143976212	-11.99073887	1.0
23	0	96.17900085	16.84999847	-19.76371002	2.657284975	-8.137516022	1.0
24	0	96.17900085	16.84999847	-14.18841934	-2.055205345	-2.576969147	1.0
[LeftEye]
21	30.6760006	64.09500122	92.83599854	0	0	0	1.0
22	30.6760006	64.09500122	92.83599854	0	0	0	1.0
23	30.6760006	64.09500122	92.83599854	0	0	0	1.0
24	30.6760006	64.09500122	92.83599854	0	0	0	1.0
[RightEye]
21	-30.6760006	64.09500122	92.83499908	0	0	0	1.0
22	-30.6760006	64.09500122	92.83499908	0	0	0	1.0
23	-30.6760006	64.09500122	92.83499908	0	0	0	1.0
24	-30.6760006	64.09500122	92.83499908	0	0	0	1.0
[LeftShoulder]
21	45.70400238	109.4599991	-26.28000069	6.010723591	-21.79556465	-11.99441528	1.0
22	45.70400238	109.4599991	-26.28000069	5.730992317	-23.42527771	-10.70162678	1.0
23	45.70400238	109.4599991	-26.28000069	5.526876926	-26.7824707	-8.372215271	1.0
24	45.70400238	109.4599991	-26.28000069	5.429895401	-30.74103928	-5.795166969	1.0
[LeftArm]
21	105.923996	-5.24600029	-22.32099915	23.57406807	-21.13027	-38.48889542	1.0
22	105.923996	-5.24600029	-22.32099915	29.43683815	-9.455138206	-37.25056839	1.0
23	105.923996	-5.24600029	-22.32099915	36.82213211	-2.920214176	-30.74217606	1.0
24	105.923996	-5.24600029	-22.32099915	41.55337906	-3.135618925	-19.84070969	1.0
[LeftForeArm]
21	278.414978	-0.0009999999311	0	9.96748895e-07	-28.97594261	-0.0002070345072	1.0
22	278.414978	-0.0009999999311	0	1.098103621e-05	-22.66807747	-0.0002096064127	1.0
23	278.414978	-0.0009999999311	0	-3.274685412e-07	-20.31002426	-0.0002062122367	1.0
24	278.414978	-0.0009999999311	0	-5.035821687e-06	-20.33211136	-0.0002066916641	1.0
[LeftHand]
21	283.2879944	0	0	-50.12039948	-23.60969543	4.422634125	1.0
22	283.2879944	0	0	-55.9443512	-23.74378014	-4.616136074	1.0
23	283.2879944	0	0	-56.43744659	-23.41211891	-13.20540142	1.0
24	283.2879944	0	0	-54.6989975	-21.53795242	-17.37182617	1.0
[LeftHandThumb1]
21	24.6609993	-15.75	26.8239994	-0.489752382	2.19946146	4.817907333	1.0
22	24.6609993	-15.75	26.8239994	-0.4942290187	2.18798852	4.814048767	1.0
23	24.6609993	-15.75	26.8239994	-0.4869963229	2.206398249	4.820181847	1.0
24	24.6609993	-15.75	26.8239994	-0.4753139019	2.236364126	4.830214024	1.0
[LeftHandThumb2]
21	32.29800034	-18.64699936	18.64699936	2.92376709	24.46520805	13.57656288	1.0
22	32.29800034	-18.64699936	18.64699936	3.058920622	23.29303932	16.11408997	1.0
23	32.29800034	-18.64699936	18.64699936	2.776814938	21.74183846	15.84603786	1.0
24	32.29800034	-18.64699936	18.64699936	2.293208838	20.34043694	13.77819633	1.0
[LeftHandThumb3]
21	26.52600098	-15.31499958	15.31499958	-10.74468899	18.41539001	12.12819386	1.0
22	26.52600098	-15.31499958	15.31499958	-11.0844841	17.51329613	11.05109596	1.0
23	26.52600098	-15.31499958	15.31499958	-10.8843689	18.38033295	11.7071085	1.0
24	26.52600098	-15.31499958	15.31499958	-10.39867878	20.1246891	13.84571743	1.0
[LeftHandThumb4]
21	19.54599953	-11.28499985	11.28499985	0	0	0	1.0
22	19.54599953	-11.28499985	11.28499985	0	0	0	1.0
23	19.54599953	-11.28499985	11.28499985	0	0	0	1.0
24	19.54599953	-11.28499985	11.28499985	0	0	0	1.0
[LeftHandIndex1]
21	91.09299469	-5.170999527	22.60099792	0.5125700831	0.3509418666	-9.855826378	1.0
22	91.09299469	-5.170999527	22.60099792	0.9670740366	-0.4826841354	-1.224112272	1.0
23	91.09299469	-5.170999527	22.60099792	1.280769348	-0.9379947782	5.074561596	1.0
24	91.09299469	-5.170999527	22.60099792	1.278696656	-1.179955006	6.826468945	1.0
[LeftHandIndex2]
21	36.76399994	0	0	-0.2562830448	1.711595654	-17.03153419	1.0
22	36.76399994	0	0	-0.2486949563	1.686899066	-16.77804565	1.0
23	36.76399994	0	0	-0.2564413548	1.711963415	-17.03550529	1.0
24	36.76399994	0	0	-0.2589725852	1.720311642	-17.12114906	1.0
[LeftHandIndex3]
21	28.83100128	0	0	-0.05262649432	0.7824970484	-7.693711281	1.0
22	28.83100128	0	0	-0.04914044589	0.7568967342	-7.440366745	1.0
23	28.83100128	0	0	-0.05270430446	0.782902956	-7.697656631	1.0
24	28.83100128	0	0	-0.05384490266	0.7915713787	-7.783243656	1.0
[LeftHandIndex4]
21	23.92700005	0	0	0	0	0	1.0
22	23.92700005	0	0	0	0	0	1.0
23	23.92700005	0	0	0	0	0	1.0
24	23.92700005	0	0	0	0	0	1.0
[LeftHandMiddle1]
21	95.33399963	0	0	-0.5163298845	-1.554622173	-11.68597507	1.0
22	95.33399963	0	0	0.005384632852	-1.824819922	-1.514350414	1.0
23	95.33399963	0	0	0.2310060412	-1.790653706	3.983809948	1.0
24	95.33399963	0	0	0.226178214	-1.433872819	4.041174889	1.0
[LeftHandMiddle2]
21	36.98199844	0	0	-0.2520288825	1.697647929	-16.88849068	1.0
22	36.98199844	0	0	-0.2510852218	1.694569468	-16.85693359	1.0
23	36.98199844	0	0	-0.2580257356	1.717162371	-17.08883286	1.0
24	36.98199844	0	0	-0.2594566047	1.72186327	-17.13708115	1.0
[LeftHandMiddle3]
21	29.50900078	0	0	-0.2849256396	1.802342296	-17.96518707	1.0
22	29.50900078	0	0	-0.283259958	1.797284365	-17.91290474	1.0
23	29.50900078	0	0	-0.2901258767	1.818248153	-18.12929344	1.0
24	29.50900078	0	0	-0.2913914323	1.822144747	-18.1694622	1.0
[LeftHandMiddle4]
21	28.3390007	0	0	0	0	0	1.0
22	28.3390007	0	0	0	0	0	1.0
23	28.3390007	0	0	0	0	0	1.0
24	28.3390007	0	0	0	0	0	1.0
[LeftHandRing1]
21	91.04499817	-0.4390000105	-18.65100098	-0.789794147	1.759594202	-15.6670742	1.0
22	91.04499817	-0.4390000105	-18.65100098	-0.3121779859	1.889143467	-7.765488148	1.0
23	91.04499817	-0.4390000105	-18.65100098	-0.1546196938	1.707253814	-4.914449692	1.0
24	91.04499817	-0.4390000105	-18.65100098	-0.2096742392	1.452697158	-5.913460255	1.0
[LeftHandRing2]
21	31.54000092	0	0	-0.520868063	2.411168575	-24.37682724	1.0
22	31.54000092	0	0	-0.4658306837	2.285792828	-23.03252411	1.0
23	31.54000092	0	0	-0.4300107956	2.199905872	-22.11904716	1.0
24	31.54000092	0	0	-0.4109270275	2.152468443	-21.617239	1.0
[LeftHandRing3]
21	29.37700081	0	0	-0.4006341994	2.126149178	-21.33997726	1.0
22	29.37700081	0	0	-0.3520031571	1.997171879	-19.98714256	1.0
23	29.37700081	0	0	-0.3207680881	1.909396291	-19.07282257	1.0
24	29.37700081	0	0	-0.3043404818	1.861290097	-18.57406616	1.0
[LeftHandRing4]
21	26.47500038	0	0	0	0	0	1.0
22	26.47500038	0	0	0	0	0	1.0
23	26.47500038	0	0	0	0	0	1.0
24	26.47500038	0	0	0	0	0	1.0
[LeftHandPinky1]
21	80.77799988	-4.887000084	-38.06099701	-2.243889093	3.482773542	-31.05837059	1.0
22	80.77799988	-4.887000084	-38.06099701	-1.430306554	4.959798336	-23.99332809	1.0
23	80.77799988	-4.887000084	-38.06099701	-1.231739402	4.743374825	-21.49724007	1.0
24	80.77799988	-4.887000084	-38.06099701	-1.380225301	3.320598364	-21.45192528	1.0
[LeftHandPinky2]
21	36	0	0	-0.4117770195	2.154469967	-21.63863945	1.0
22	36	0	0	-0.3499114215	1.991381526	-19.92677879	1.0
23	36	0	0	-0.3141562343	1.890339255	-18.87496185	1.0
24	36	0	0	-0.2987605929	1.844708443	-18.40244102	1.0
[LeftHandPinky3]
21	21.14200211	0	0	-0.3782331049	2.067933559	-20.72781372	1.0
22	21.14200211	0	0	-0.3194993436	1.905441165	-19.03208923	1.0
23	21.14200211	0	0	-0.285273701	1.803669691	-17.97851944	1.0
24	21.14200211	0	0	-0.2703205645	1.756945372	-17.49720383	1.0
[LeftHandPinky4]
21	19.75699997	0	0	0	0	0	1.0
22	19.75699997	0	0	0	0	0	1.0
23	19.75699997	0	0	0	0	0	1.0
24	19.75699997	0	0	0	0	0	1.0
[RightShoulder]
21	-45.70000076	109.4620056	-26.28000069	5.045172691	18.98007202	15.59525681	1.0
22	-45.70000076	109.4620056	-26.28000069	3.201178789	18.43657684	6.093085289	1.0
23	-45.70000076	109.4620056	-26.28000069	1.487766981	16.24909782	-4.698533058	1.0
24	-45.70000076	109.4620056	-26.28000069	0.5825259686	12.22455883	-14.73563004	1.0
[RightArm]
21	-105.9280014	-5.248000145	-22.32099915	7.880568504	46.87241745	14.67546082	1.0
22	-105.9280014	-5.248000145	-22.32099915	0.05785055086	53.97522736	12.09441566	1.0
23	-105.9280014	-5.248000145	-22.32099915	-11.81103134	56.64884949	11.58138275	1.0
24	-105.9280014	-5.248000145	-22.32099915	-22.17792511	53.80138397	14.04481506	1.0
[RightForeArm]
21	-278.414978	0	0	-1.145574242e-05	47.54458237	-5.077424248e-06	1.0
22	-278.414978	0	0	-5.439903248e-07	54.37433243	-7.073893357e-06	1.0
23	-278.414978	0	0	-7.974545611e-07	60.83121872	-5.321143135e-07	1.0
24	-278.414978	0	0	-8.237039765e-06	66.40085602	-6.602938925e-07	1.0
[RightHand]
21	-283.2879944	0	0.0009999999311	-1.657090902	-1.151328802	21.35111046	1.0
22	-283.2879944	0	0.0009999999311	-1.82533443	1.460909963	30.09244919	1.0
23	-283.2879944	0	0.0009999999311	-3.6724298	2.100212574	36.11670303	1.0
24	-283.2879944	0	0.0009999999311	-5.455307007	1.721271873	36.5887146	1.0
[RightHandPinky1]
21	-80.76699829	-4.885000229	-38.06000137	-1.57874918	-4.622277737	25.75676918	1.0
22	-80.76699829	-4.885000229	-38.06000137	-1.271427631	-6.208784103	23.18655014	1.0
23	-80.76699829	-4.885000229	-38.06000137	-1.217735291	-7.430573463	23.33550072	1.0
24	-80.76699829	-4.885000229	-38.06000137	-1.267498851	-8.579735756	24.15038109	1.0
[RightHandPinky2]
21	-36	0	0.0009999999311	-0.2698276043	-1.559071779	19.65580368	1.0
22	-36	0	0.0009999999311	-0.2590469122	-1.52880764	19.25893211	1.0
23	-36	0	0.0009999999311	-0.2786105275	-1.582909703	19.96951485	1.0
24	-36	0	0.0009999999311	-0.2987037599	-1.638035655	20.69440651	1.0
[RightHandPinky3]
21	-21.14200211	0	0	-0.2464088351	-1.491816878	18.75620651	1.0
22	-21.14200211	0	0	-0.2365645021	-1.462815881	18.37772751	1.0
23	-21.14200211	0	0	-0.2556652427	-1.518205047	19.10177994	1.0
24	-21.14200211	0	0	-0.2753741741	-1.57481122	19.84245682	1.0
[RightHandPinky4]
21	-19.75699997	0	0	0	0	0	1.0
22	-19.75699997	0	0	0	0	0	1.0
23	-19.75699997	0	0	0	0	0	1.0
24	-19.75699997	0	0	0	0	0	1.0
[RightHandRing1]
21	-91.03599548	-0.4390000105	-18.65100098	-0.8918147087	-2.351350069	18.10833168	1.0
22	-91.03599548	-0.4390000105	-18.65100098	-0.9316002131	-1.845443845	18.74662971	1.0
23	-91.03599548	-0.4390000105	-18.65100098	-0.9497023225	-1.677159667	19.03695297	1.0
24	-91.03599548	-0.4390000105	-18.65100098	-0.9251057506	-1.932349443	18.64206505	1.0
[RightHandRing2]
21	-31.54000092	0	0	-0.4162870646	-1.920555711	24.45715904	1.0
22	-31.54000092	0	0	-0.3866140842	-1.85389185	23.5553875	1.0
23	-31.54000092	0	0	-0.3705639541	-1.816814303	23.05612564	1.0
24	-31.54000092	0	0	-0.3668149114	-1.807942986	22.93717194	1.0
[RightHandRing3]
21	-29.37700081	0	0	-0.3200292289	-1.693186164	21.40538025	1.0
22	-29.37700081	0	0	-0.2940175235	-1.625176311	20.50558853	1.0
23	-29.37700081	0	0	-0.2799725533	-1.587329268	20.00699425	1.0
24	-29.37700081	0	0	-0.2766780257	-1.578195214	19.88715744	1.0
[RightHandRing4]
21	-26.47500038	0	0	0	0	0	1.0
22	-26.47500038	0	0	0	0	0	1.0
23	-26.47500038	0	0	0	0	0	1.0
24	-26.47500038	0	0	0	0	0	1.0
[RightHandMiddle1]
21	-95.32500458	0	0	-0.6871156096	-2.063974619	14.77030945	1.0
22	-95.32500458	0	0	-0.7000389695	-2.134609699	14.9870224	1.0
23	-95.32500458	0	0	-0.6688057184	-2.210842133	14.45723724	1.0
24	-95.32500458	0	0	-0.5874067545	-2.201680183	13.04511356	1.0
[RightHandMiddle2]
21	-36.98199844	0	0	-0.6151343584	-2.308084965	29.84338951	1.0
22	-36.98199844	0	0	-0.6247327328	-2.324712992	30.08082962	1.0
23	-36.98199844	0	0	-0.6211554408	-2.319328547	30.00113487	1.0
24	-36.98199844	0	0	-0.5729406476	-2.232964516	28.77865219	1.0
[RightHandMiddle3]
21	-29.50900078	0	0	-0.6564474106	-2.380563974	30.85352707	1.0
22	-29.50900078	0	0	-0.6663517356	-2.397050142	31.09124756	1.0
23	-29.50900078	0	0	-0.6626518369	-2.391689301	31.01100349	1.0
24	-29.50900078	0	0	-0.612872541	-2.306135893	29.78754616	1.0
[RightHandMiddle4]
21	-28.3390007	0	0.0009999999311	0	0	0	1.0
22	-28.3390007	0	0.0009999999311	0	0	0	1.0
23	-28.3390007	0	0.0009999999311	0	0	0	1.0
24	-28.3390007	0	0.0009999999311	0	0	0	1.0
[RightHandIndex1]
21	-91.08300018	-5.167999744	22.60099792	-0.8404660821	2.754355192	17.65241432	1.0
22	-91.08300018	-5.167999744	22.60099792	-0.6535104513	3.959273815	14.75094509	1.0
23	-91.08300018	-5.167999744	22.60099792	-0.4960464537	4.6604743	12.11348915	1.0
24	-91.08300018	-5.167999744	22.60099792	-0.3476914167	5.464581966	9.531447411	1.0
[RightHandIndex2]
21	-36.76399994	0	0	-0.4244255722	-1.938372016	24.69903755	1.0
22	-36.76399994	0	0	-0.3931642473	-1.868994713	23.75871849	1.0
23	-36.76399994	0	0	-0.3634801209	-1.800211549	22.83304214	1.0
24	-36.76399994	0	0	-0.3283519149	-1.714031339	21.6829319	1.0
[RightHandIndex3]
21	-28.83100128	0	0	-0.1671588272	-1.234169245	15.4258194	1.0
22	-28.83100128	0	0	-0.1489573121	-1.166384816	14.55898285	1.0
23	-28.83100128	0	0	-0.1314564049	-1.096971393	13.67485619	1.0
24	-28.83100128	0	0	-0.1111485735	-1.009254456	12.56280136	1.0
[RightHandIndex4]
21	-23.92700005	0	0	0	0	0	1.0
22	-23.92700005	0	0	0	0	0	1.0
23	-23.92700005	0	0	0	0	0	1.0
24	-23.92700005	0	0	0	0	0	1.0
[RightHandThumb1]
21	-24.64799881	-15.72700024	26.82600021	-1.663284421	-0.2751871347	-4.21680975	1.0
22	-24.64799881	-15.72700024	26.82600021	-1.650825143	-0.3114067614	-4.228539944	1.0
23	-24.64799881	-15.72700024	26.82600021	-1.642276645	-0.335791409	-4.236347198	1.0
24	-24.64799881	-15.72700024	26.82600021	-1.711486578	-0.1358029395	-4.1714921	1.0
[RightHandThumb2]
21	-32.29800034	-18.64699936	18.64699936	18.24020767	-10.75189686	-29.2680912	1.0
22	-32.29800034	-18.64699936	18.64699936	18.4144249	-12.87737465	-25.42791557	1.0
23	-32.29800034	-18.64699936	18.64699936	18.45485687	-13.72603798	-23.80838013	1.0
24	-32.29800034	-18.64699936	18.64699936	18.33043289	-13.01976204	-24.40016174	1.0
[RightHandThumb3]
21	-26.52600098	-15.31399918	15.31399918	-20.3217659	4.125213146	-27.95165062	1.0
22	-26.52600098	-15.31399918	15.31399918	-18.24585342	-1.171298146	-28.0464344	1.0
23	-26.52600098	-15.31399918	15.31399918	-17.19675255	-3.967629433	-28.45182419	1.0
24	-26.52600098	-15.31399918	15.31399918	-17.24142838	-3.755723715	-28.08802414	1.0
[RightHandThumb4]
21	-19.54599953	-11.28499985	11.28499985	0	0	0	1.0
22	-19.54599953	-11.28499985	11.28499985	0	0	0	1.0
23	-19.54599953	-11.28499985	11.28499985	0	0	0	1.0
24	-19.54599953	-11.28499985	11.28499985	0	0	0	1.0
[LeftUpLeg]
21	82.07800293	-67.51699829	-15.99599934	-68.25136566	22.25603104	-4.301760197	1.0
22	82.07800293	-67.51699829	-15.99599934	-61.92111969	20.2455349	-3.447065353	1.0
23	82.07800293	-67.51699829	-15.99599934	-58.71760559	16.91033936	-1.841914058	1.0
24	82.07800293	-67.51699829	-15.99599934	-60.29405975	12.13268089	-0.2702453434	1.0
[LeftLeg]
21	0	-443.7049866	2.845999956	77.25312805	5.36733675	8.961368561	1.0
22	0	-443.7049866	2.845999956	73.75191498	4.20467329	5.463850975	1.0
23	0	-443.7049866	2.845999956	72.88804626	0.9974207878	-0.2900620401	1.0
24	0	-443.7049866	2.845999956	77.33053589	-1.379976511	-4.040456772	1.0
[LeftFoot]
21	0	-444.2789917	-29.8219986	-6.87507534	2.3090868	-3.066180944	1.0
22	0	-444.2789917	-29.8219986	8.596155167	0.7681069374	-3.370832682	1.0
23	0	-444.2789917	-29.8219986	17.28890991	0.8565964103	-5.016442776	1.0
24	0	-444.2789917	-29.8219986	17.52541542	1.159164548	-6.003350735	1.0
[LeftToeBase]
21	0	-87.28699493	107.1060028	-16.76845741	-0.4886335135	-3.098799229	1.0
22	0	-87.28699493	107.1060028	-8.879018784	-0.08209132403	-0.520596981	1.0
23	0	-87.28699493	107.1060028	-3.783839941	0.02345416136	0.1487425417	1.0
24	0	-87.28699493	107.1060028	-2.359096289	7.015643746e-07	8.625594319e-07	1.0
[RightUpLeg]
21	-82.07800293	-67.51699829	-15.99599934	-66.37772369	-7.313720226	-5.973295689	1.0
22	-82.07800293	-67.51699829	-15.99599934	-54.6067543	-8.882679939	-8.721460342	1.0
23	-82.07800293	-67.51699829	-15.99599934	-40.43297577	-11.51137829	-9.446621895	1.0
24	-82.07800293	-67.51699829	-15.99599934	-26.65178299	-13.54255199	-8.533110619	1.0
[RightLeg]
21	0	-443.7049866	2.861999989	71.89750671	-0.9920486212	9.115782738	1.0
22	0	-443.7049866	2.861999989	62.29499435	1.559625387	8.84548378	1.0
23	0	-443.7049866	2.861999989	47.31809998	3.688663244	6.195887566	1.0
24	0	-443.7049866	2.861999989	30.22545624	2.518826246	1.434745431	1.0
[RightFoot]
21	0	-444.2770081	-29.83799934	-16.03886795	-0.5402958989	-2.094321251	1.0
22	0	-444.2770081	-29.83799934	-12.03510666	0.2705134749	-0.1848898828	1.0
23	0	-444.2770081	-29.83799934	-2.558641911	0.2278912067	3.275705338	1.0
24	0	-444.2770081	-29.83799934	10.48220158	-0.8467193246	8.178309441	1.0
[RightToeBase]
21	0	-87.28699493	107.1060028	-13.8834343	-7.860816368e-06	-2.406702606e-07	1.0
22	0	-87.28699493	107.1060028	-11.89337921	0.02725920454	0.1359058768	1.0
23	0	-87.28699493	107.1060028	-13.16312885	-0.2964521945	-1.477941632	1.0
24	0	-87.28699493	107.1060028	-13.01652908	-0.2964538038	-1.477943063	1.0
[EndOfFile]
